<?xml version="1.0" encoding="utf-8"?><!DOCTYPE svg PUBLIC "-//W3C//DTD SVG 1.1//EN" "http://www.w3.org/Graphics/SVG/1.1/DTD/svg11.dtd"><svg version="1.1" id="Contours" xmlns="http://www.w3.org/2000/svg" xmlns:xlink="http://www.w3.org/1999/xlink" x="0px" y="0px" width="1252.034668px" height="1252.034668px" viewBox="0.000000 0.000005 1252.034668 554.487854" enable-background="new 0 0 1252.034668 1252.034668" xml:space="preserve" stroke="black" fill="none" stroke-linecap='round' stroke-linejoin='round'><path class="selected"  fill="#000000" opacity="1.000000" stroke="none" 
 	d="
M0.000000 406.407771 C2.056686 392.310847 4.659698 378.857600 11.322906 366.602473 C23.711777 343.816219 41.233078 326.824458 65.684875 317.050349 C79.885834 311.373714 94.534851 309.080196 109.406372 310.621089 C129.637787 312.717281 149.204681 318.321101 166.729797 328.906490 C177.929901 335.671382 188.153107 344.054256 198.802002 351.728938 C199.335785 352.113582 199.697937 352.736995 200.232513 353.120174 C206.223022 357.414607 206.263275 358.080501 208.833282 350.928157 C214.208313 335.969539 219.317932 320.896175 223.909424 305.680659 C228.972839 288.901363 233.570496 271.970821 237.932861 254.993587 C242.240204 238.230708 245.910065 221.305049 250.028687 204.492244 C253.284943 191.199458 256.527100 177.892696 260.264801 164.731075 C264.913422 148.361812 269.662262 131.999446 275.098358 115.880550 C282.484528 93.979305 292.232758 73.053889 305.245056 53.921260 C311.297058 45.022701 318.461151 36.711909 326.062744 29.071529 C341.025360 14.032527 359.019958 3.472896 380.154236 0.677608 C399.134094 -1.832646 417.205017 2.589229 432.706726 14.652034 C452.537842 30.083797 462.817383 51.192073 469.150757 74.973323 C473.372009 90.823604 473.759216 106.850215 472.773560 122.839290 C471.762268 139.245113 467.468018 155.224971 461.285339 170.498103 C456.607056 182.055171 451.993103 193.789058 445.778198 204.534846 C438.164185 217.699336 429.306396 230.209224 420.231079 242.441707 C413.859070 251.030452 406.694275 259.161189 399.058105 266.655330 C382.395752 283.007381 363.956116 297.143123 343.418030 308.416682 C331.337128 315.047969 318.915588 320.815791 305.557159 324.457454 C301.176361 325.651790 298.434326 328.764583 296.969849 333.160823 C291.800659 348.678889 286.701141 364.224788 281.192596 379.623470 C277.460297 390.056697 273.231201 400.321468 268.914368 410.530574 C267.573303 413.702205 267.580475 415.972102 270.282684 418.215388 C286.222168 431.447810 302.350189 444.359187 321.184357 453.454036 C334.006378 459.645564 346.977600 458.153621 359.986816 454.816585 C364.885376 453.560115 369.578308 451.453059 374.299805 449.570125 C378.303467 447.973445 380.180237 444.922176 380.014099 440.539973 C378.906250 411.318538 386.711304 384.066463 398.267700 357.612849 C408.954651 333.149715 423.846191 311.581599 443.997925 294.140315 C463.498535 277.262630 484.855408 263.010860 510.101196 255.945674 C516.759033 254.082454 523.779602 253.486995 530.650879 252.420833 C545.378723 250.135860 559.054077 253.760066 571.976746 260.459651 C587.404785 268.458125 600.069824 279.784846 608.087830 295.255672 C613.879578 306.430965 618.057190 318.440242 623.026550 330.046809 C623.936523 332.172237 624.881104 334.411067 626.342102 336.150264 C632.481445 343.458797 636.084167 351.638240 637.101013 361.245906 C638.407593 373.591487 636.488464 385.637263 635.043335 397.773860 C634.448242 402.770930 634.126770 407.821834 634.044434 412.854182 C633.889893 422.298640 633.493591 431.783504 634.162476 441.182918 C634.684692 448.521175 636.614807 455.765926 638.067017 463.022639 C638.244873 463.911433 639.337830 464.617244 640.006714 465.407771 C640.671143 464.779353 641.522461 464.262141 641.972534 463.506160 C651.997620 446.666682 662.517700 430.090877 671.794373 412.846736 C679.005493 399.442073 684.437866 385.092708 691.058411 371.354915 C698.362976 356.197688 705.924988 341.156001 713.759521 326.266475 C718.100342 318.016780 722.645142 309.755000 728.131409 302.254512 C737.212708 289.839046 754.145020 281.602962 770.616882 285.254634 C789.123596 289.357417 798.926147 300.909541 803.060242 318.653255 C805.256897 328.081660 803.413757 337.138545 801.631287 346.271053 C799.104187 359.219295 796.161194 372.100642 794.105957 385.122737 C791.964661 398.689754 791.049805 412.451228 788.886536 426.013972 C786.932800 438.262508 788.418457 450.239192 790.062500 462.278255 C790.168091 463.050838 791.054504 463.949886 791.806458 464.303889 C792.188538 464.483699 793.289673 463.729671 793.712280 463.143245 C804.709961 447.878474 816.112122 432.878719 826.491272 417.202205 C836.545959 402.015681 845.250427 385.941707 855.072754 370.593318 C867.584229 351.043025 880.352539 331.643550 893.525146 312.534236 C903.269531 298.398250 917.294312 292.359920 934.450928 293.382259 C948.452515 294.216609 964.765503 308.813655 968.084839 322.928157 C971.448486 337.230403 967.794800 350.704036 964.593628 364.369319 C960.885254 380.199886 957.098389 396.033382 954.166504 412.016170 C952.567139 420.735042 951.882568 429.795222 952.219116 438.647029 C952.560791 447.631770 954.597412 456.561092 956.090698 465.481380 C956.269653 466.550838 957.691650 467.412410 958.537354 468.370296 C959.024902 467.572322 959.457397 466.733943 960.008301 465.982600 C965.634888 458.309261 971.283691 450.652644 976.919678 442.986385 C981.520508 436.727718 985.745850 430.146785 990.799072 424.278133 C997.367188 416.649959 1006.645142 413.471736 1016.232910 413.609065 C1034.751099 413.874324 1050.420776 425.893001 1054.159424 445.703914 C1056.825439 459.830623 1050.817749 471.265926 1044.301025 482.358211 C1033.386230 500.936580 1019.500488 517.308894 1003.805420 532.108821 C993.154907 542.151912 980.999512 549.047786 966.314331 551.490657 C952.009277 553.870296 938.181274 552.609676 925.354004 546.072200 C910.221313 538.359676 898.601318 526.738704 890.986328 511.340511 C886.359375 501.984554 881.900757 492.598567 880.950195 481.982600 C880.874390 481.137019 880.037720 479.653011 879.646118 479.682430 C878.691406 479.754207 877.481201 480.311702 876.915649 481.075008 C870.883057 489.217097 865.411499 497.820369 858.907104 505.558162 C844.418152 522.794368 828.753174 538.544124 806.338196 545.708675 C791.070618 550.588680 776.603394 548.195857 762.521362 542.249324 C752.883850 538.179622 743.992920 532.569514 736.788940 524.702327 C728.736572 515.908626 722.564453 506.016780 718.984192 494.576839 C718.315247 492.439265 717.024963 491.321101 715.319031 493.642879 C712.146667 497.960262 709.087769 502.365901 706.109314 506.820125 C695.324829 522.948177 682.768433 537.411189 665.652954 547.001521 C660.094543 550.116267 653.598999 551.930598 647.305237 553.285335 C633.096741 556.343684 619.631775 553.399959 607.084717 546.368221 C598.587952 541.606624 591.327454 535.340511 585.493469 527.437679 C576.853271 515.733211 569.372620 503.418269 564.646362 489.568538 C564.050720 487.823055 563.310242 486.126765 562.636841 484.407771 C560.993896 486.005183 559.068054 487.399471 557.753174 489.232112 C547.638123 503.330135 538.144104 517.943904 525.157898 529.695491 C512.715698 540.954646 498.365234 548.614192 481.666870 551.395320 C454.095398 555.987727 430.865662 547.188655 411.212280 528.029475 C404.954895 521.929500 403.949341 523.197566 396.902161 525.313167 C386.785400 528.350276 376.591675 531.413997 366.213989 533.220515 C355.609497 535.066341 344.751465 536.104427 333.989410 536.232478 C320.349701 536.394954 307.257507 532.696101 294.737091 527.373225 C274.180878 518.633846 255.856812 506.156429 238.017975 492.912776 C236.347046 491.672176 234.785217 490.284969 233.118286 489.038631 C225.315948 483.205257 225.513397 483.466243 218.731415 491.025569 C212.527222 497.940852 206.292480 505.109920 198.918213 510.625667 C188.824432 518.175471 178.031769 525.031917 166.817047 530.776790 C154.765869 536.950008 141.658630 540.021541 127.835724 540.564143 C107.468597 541.363704 88.495331 536.620052 70.827621 527.203304 C61.840454 522.413142 53.791626 515.747371 45.668564 509.476253 C31.253265 498.347713 21.596985 483.253474 13.175095 467.542171 C7.475800 456.909846 3.270248 445.414119 2.041245 433.190974 C1.162354 424.449886 0.666672 415.670222 0.000000 406.407771 M459.000061 425.907771 C458.666687 426.602962 458.024902 427.308162 458.047058 427.991756 C458.307129 436.018001 458.262451 444.085628 459.141296 452.049373 C459.732727 457.408992 461.128662 462.835506 463.131104 467.845760 C465.865417 474.687190 469.031311 475.105647 474.092224 469.764095 C486.803894 456.347224 496.206543 440.535335 505.978027 425.014217 C517.113525 407.326472 528.110413 389.551326 539.105469 371.775691 C542.787964 365.822200 548.449707 360.483577 546.907654 352.580013 C545.904663 347.439510 544.460327 342.281123 542.406372 337.475948 C539.848938 331.493098 535.166870 329.836909 528.878296 332.062495 C514.635193 337.103328 502.798218 346.093684 491.951355 356.172908 C479.771301 367.491023 471.945068 382.012752 466.177124 397.391292 C462.866211 406.218929 461.333313 415.713435 459.000061 425.907771 M89.000000 392.907771 C78.769852 400.611751 76.101242 411.615535 79.329239 422.820003 C83.215271 436.308650 91.094910 447.666682 103.522888 455.662898 C114.526733 462.742854 125.284454 464.847713 137.081909 458.408992 C148.774750 452.027278 158.079956 442.913142 166.141724 432.505428 C166.893585 431.534724 166.215546 428.359676 165.133240 427.250789 C159.852295 421.839778 154.171997 416.821101 148.701141 411.592220 C139.364990 402.669002 128.643005 395.628352 116.478149 391.714046 C107.806763 388.923763 98.295654 385.668147 89.000000 392.907771 M391.500000 132.407771 C392.666687 127.393916 394.547424 122.423396 394.854248 117.357417 C395.534058 106.130794 395.342773 94.905940 390.061768 84.426326 C388.376282 81.081660 385.887512 80.047664 383.253296 82.739009 C379.023804 87.060237 374.511353 91.265865 371.104980 96.201167 C360.943970 110.922969 353.331848 127.064510 348.127502 144.107661 C340.075928 170.474788 332.845490 197.093074 325.365112 223.632564 C325.088257 224.614742 325.843414 225.887813 326.117584 227.025325 C327.157471 226.573726 328.410645 226.353755 329.198486 225.628413 C331.871063 223.167903 334.324493 220.471126 336.958893 217.966914 C355.520203 200.323848 371.838867 180.994502 381.943176 157.139644 C385.303345 149.206905 388.000061 140.993098 391.500000 132.407771 z"/><path class="selected"  fill="#000000" opacity="1.000000" stroke="none" 
 	d="
M1172.750000 189.157771 C1163.690796 193.193416 1156.208374 198.798396 1152.150879 207.556270 C1148.994385 214.369014 1151.056885 218.386348 1159.100098 219.773128 C1172.442383 222.073482 1185.780518 220.196284 1197.014038 212.447505 C1203.117798 208.237117 1208.494629 207.849117 1215.010010 209.358272 C1222.034424 210.985408 1230.630493 222.786189 1230.955200 229.815486 C1231.419922 239.868465 1230.192017 249.492244 1223.341431 257.661983 C1220.587769 260.945674 1221.773682 263.356563 1226.052002 264.419185 C1232.089722 265.919063 1238.124634 267.435603 1244.128784 269.063594 C1248.238037 270.177791 1252.295776 271.410945 1252.021484 277.027400 C1251.742798 282.733028 1247.334595 284.327876 1243.132568 285.287715 C1235.448242 287.042964 1227.580933 287.983821 1219.834595 289.493404 C1218.478882 289.757625 1217.341675 291.143550 1216.103516 292.011409 C1217.439209 292.810176 1218.694336 293.818599 1220.125610 294.369075 C1224.728516 296.139644 1229.835205 297.034602 1233.932007 299.580135 C1239.505005 303.043147 1244.791748 307.112300 1245.146729 315.004451 C1245.387939 320.365962 1241.727783 325.335689 1232.403687 328.362788 C1222.545288 331.563411 1212.444824 334.054683 1202.695190 337.541194 C1196.924927 339.604732 1191.531616 342.825557 1186.183228 345.899104 C1184.723633 346.737849 1184.039917 348.926692 1183.000000 350.495906 C1184.394531 351.361018 1185.689941 352.504817 1187.201050 353.041682 C1192.922607 355.075008 1198.536011 355.512752 1204.846191 354.693782 C1218.200928 352.960750 1230.786255 355.910091 1241.351807 365.200374 C1250.259644 373.032771 1249.299805 385.941463 1244.751465 395.117610 C1240.639526 403.413142 1233.927979 407.668147 1224.535156 407.410457 C1217.551880 407.218929 1212.661499 403.737727 1208.968872 397.984554 C1203.808716 389.945369 1201.921143 381.495296 1204.635498 372.140926 C1204.872559 371.323665 1203.920410 369.688045 1203.070190 369.165218 C1202.263794 368.669490 1200.664429 368.758968 1199.759521 369.240779 C1193.136719 372.767390 1190.077026 379.302791 1188.215332 385.797908 C1185.505493 395.252986 1188.341187 404.050349 1194.696045 411.641658 C1196.422974 413.704524 1197.484253 415.592586 1196.421753 418.908748 C1195.721802 421.093562 1197.613647 424.618953 1199.287231 426.831477 C1200.081909 427.882259 1203.176392 427.723689 1205.058716 427.319514 C1210.062012 426.245906 1214.932739 424.561702 1219.929565 423.450130 C1227.255493 421.820491 1235.133057 427.326350 1237.999878 435.806209 C1241.514893 446.203059 1240.239502 452.526302 1233.600586 458.335750 C1230.641235 460.925227 1227.403931 461.409846 1224.798584 458.516170 C1222.409668 455.862849 1221.717651 452.604182 1225.164307 449.686458 C1228.745972 446.654597 1229.102539 442.610408 1226.813232 438.894954 C1224.681152 435.434871 1221.286133 434.510432 1217.219727 436.334895 C1214.842163 437.401668 1212.085815 437.588557 1209.594360 438.445979 C1206.455200 439.526302 1204.453857 441.239436 1205.168579 445.268123 C1205.503296 447.155452 1204.267334 451.011531 1203.449463 451.094905 C1201.045166 451.340022 1198.367676 450.422908 1196.058228 449.381526 C1195.045532 448.924983 1194.565674 447.106136 1194.020264 445.830623 C1192.757202 442.877010 1190.899658 441.344051 1187.381958 441.327693 C1177.352905 441.280940 1167.467163 440.531551 1158.327759 435.480647 C1151.922241 431.940730 1147.316162 422.849788 1150.009277 416.215511 C1152.493042 410.097346 1157.695557 407.404842 1163.694458 406.546931 C1167.136475 406.054866 1170.780640 406.934505 1174.329346 407.247371 C1176.716431 407.457820 1178.162598 407.546199 1177.293579 404.078181 C1174.101929 391.340144 1174.669067 379.241267 1184.046265 368.726375 C1186.789185 365.650569 1183.899902 364.347713 1181.286255 363.400813 C1176.499878 361.666682 1172.800415 358.653255 1171.034180 353.786189 C1169.105591 348.471248 1171.293457 344.025325 1174.763428 340.201106 C1181.515381 332.759456 1190.654907 328.952998 1199.685547 325.594356 C1209.103027 322.091792 1219.086182 320.121455 1228.786621 317.356990 C1230.234985 316.944209 1231.489746 315.851619 1232.834106 315.073543 C1231.812866 313.851680 1230.925415 312.479243 1229.748657 311.432124 C1221.966919 304.508296 1212.220337 302.818904 1202.410034 301.433101 C1196.706055 300.627376 1190.978271 299.705501 1185.239014 299.519649 C1180.271973 299.358882 1177.301758 296.587886 1177.272339 292.512935 C1177.242920 288.449275 1181.236328 286.348018 1185.120117 285.432613 C1193.939453 283.353816 1202.752197 281.212276 1211.644287 279.492488 C1215.911011 278.667232 1220.355225 278.781612 1224.709717 278.370723 C1225.496582 278.296382 1226.237793 277.737117 1227.000000 277.401790 C1226.371826 276.737056 1225.863647 275.737910 1225.095825 275.462154 C1220.157959 273.689143 1215.255493 271.238948 1210.157471 270.675777 C1206.177734 270.236140 1201.952881 272.319514 1197.800049 273.081172 C1187.292480 275.008479 1177.106323 275.569576 1167.683105 268.711787 C1156.533936 260.598079 1156.069092 247.799556 1162.698486 237.206721 C1163.418701 236.055843 1164.116821 234.891231 1164.825195 233.732967 C1163.146362 232.957942 1161.535522 231.919246 1159.773926 231.464351 C1156.434082 230.602046 1152.739136 230.673885 1149.667114 229.296931 C1139.871460 224.906856 1136.122681 214.203304 1140.721191 204.262569 C1142.753174 199.869746 1143.800415 194.511226 1149.718140 193.077998 C1150.250488 192.949031 1150.477295 191.558467 1150.845947 190.753719 C1149.865112 190.305049 1148.925293 189.632198 1147.896851 189.444820 C1141.991821 188.368831 1135.888184 187.996822 1130.186279 186.277461 C1120.235107 183.276851 1113.018555 172.259822 1113.001709 162.647823 C1112.989502 155.618892 1112.996582 155.618953 1106.276123 156.407832 C1095.916626 157.623836 1090.300049 155.530635 1088.512085 148.195674 C1086.598022 140.342464 1086.149536 132.185909 1093.041992 125.761775 C1093.858887 125.000423 1093.986084 123.499141 1094.433105 122.340877 C1093.033447 122.363155 1091.507812 122.028011 1090.255615 122.468990 C1084.445068 124.514522 1078.702637 126.755489 1072.950684 128.964778 C1067.204224 131.171809 1058.684082 126.319820 1057.884277 120.250423 C1057.181885 114.919185 1052.650879 117.174251 1050.153198 117.937373 C1033.326416 123.078304 1017.277954 110.782893 1013.741333 98.630489 C1013.391602 97.428889 1013.305908 96.151912 1012.983765 94.940242 C1012.586914 93.448055 1012.070557 91.987727 1011.605835 90.513606 C1010.114258 91.267940 1008.376587 91.749568 1007.179077 92.829890 C1004.089478 95.617061 1001.279175 98.710872 998.283325 101.605525 C993.567017 106.162471 985.454102 107.830379 980.192749 105.407710 C974.195190 102.646114 971.494263 94.990413 973.323364 87.521907 C977.217529 71.621455 986.396240 58.471004 994.940063 44.969417 C996.110718 43.119380 997.046387 41.041927 998.525879 39.482295 C1001.681030 36.156062 999.543823 34.389339 996.670044 33.481746 C987.866943 30.701839 986.645020 32.496761 985.788452 39.738948 C984.927246 47.020686 981.138916 53.526546 976.546875 59.343929 C969.519531 68.246455 961.681030 76.265681 951.039185 80.828853 C937.868774 86.476314 925.309448 86.173030 913.721069 76.667598 C903.637939 68.397029 898.107788 57.978023 899.071167 44.843562 C900.310303 27.950252 910.365601 12.837825 927.378418 7.777461 C940.985840 3.730098 950.094971 11.454585 949.775513 24.299312 C949.723999 26.373286 946.974243 28.784236 944.891602 30.164241 C944.244751 30.592830 940.846680 28.512569 940.133423 26.936153 C934.750488 15.037837 932.531982 17.705928 924.113892 22.562434 C913.342896 28.776302 906.628906 46.673091 913.450073 58.167720 C921.949707 72.490901 934.823364 77.890742 951.912598 66.755428 C963.389526 59.277034 971.782227 48.733638 974.792725 34.952205 C975.760132 30.523799 974.176392 26.216731 969.980103 23.390681 C965.307861 20.244136 964.095093 13.327388 968.323364 10.990901 C970.806885 9.618526 976.476562 9.519099 977.713623 11.138484 C984.085083 19.478633 993.874023 20.096126 1002.433838 23.137569 C1013.381104 27.027278 1015.864502 33.319576 1009.780029 43.223323 C1002.458862 55.140071 995.335449 67.195552 988.652710 79.477290 C986.559814 83.323665 986.063477 88.072993 985.094604 92.465938 C984.913208 93.287837 985.960327 94.380550 986.440552 95.348323 C987.245239 94.916621 988.247559 94.663753 988.824463 94.025996 C995.919067 86.182796 1002.897095 78.233943 1010.015991 70.413326 C1016.521851 63.266292 1022.301636 55.081294 1029.934082 49.420161 C1043.336792 39.479182 1059.514038 44.108516 1064.487183 59.613460 C1066.251099 65.113338 1065.042847 70.825252 1061.166016 75.849422 C1052.549072 87.016292 1041.398071 86.743098 1029.510864 83.367610 C1023.616089 81.693660 1022.485352 82.409053 1023.000000 88.372371 C1023.796021 97.598872 1032.192871 107.445064 1041.270996 107.058406 C1049.180176 106.721492 1057.782349 106.324580 1063.354370 97.830989 C1070.697754 86.637080 1080.913208 78.309077 1094.427124 75.652156 C1102.398193 74.085078 1110.453125 75.257014 1116.042236 82.083675 C1121.673218 88.961360 1121.531494 96.785335 1117.463989 104.356319 C1112.397705 113.786494 1106.864746 122.964961 1101.660645 132.322932 C1100.778931 133.908748 1100.473633 135.834163 1100.011230 137.630794 C1098.320068 144.203242 1100.461792 146.701228 1106.554077 144.099117 C1112.652100 141.494502 1118.486694 137.912898 1123.794556 133.908321 C1130.731323 128.674861 1136.860840 122.124385 1145.361328 119.519710 C1154.098267 116.842586 1162.998901 117.368587 1170.296143 123.405391 C1176.718872 128.718684 1178.603638 136.037898 1175.967529 144.130428 C1174.441406 148.815669 1172.866699 153.523555 1170.793213 157.978938 C1169.294800 161.198543 1164.288574 162.667232 1162.037231 160.854732 C1159.183716 158.557430 1158.193481 156.100337 1160.424561 152.208797 C1162.682495 148.270137 1164.201050 143.616878 1164.824585 139.108089 C1165.544189 133.906001 1161.971436 130.873470 1156.592529 130.370479 C1150.661499 129.815791 1145.808350 131.776363 1141.100220 135.327510 C1134.667969 140.179378 1128.678467 145.308284 1126.041748 153.168269 C1121.359131 167.126888 1130.589111 176.692195 1143.484009 177.364131 C1153.688354 177.895808 1163.853149 177.576228 1173.759399 174.476619 C1175.329468 173.985347 1177.338135 173.976192 1178.870117 174.518306 C1180.731812 175.177180 1183.654541 176.596065 1183.708374 177.794307 C1183.809082 180.037227 1182.749756 182.975764 1181.119629 184.494685 C1178.937378 186.528316 1175.753662 187.487300 1172.750000 189.157771 M1102.500000 102.407771 C1103.440796 101.467036 1104.406372 100.549617 1105.317871 99.581416 C1109.349731 95.299007 1109.052002 90.369624 1103.894897 88.088435 C1101.159302 86.878352 1097.048340 86.633784 1094.375977 87.810542 C1084.849487 92.005611 1076.036133 97.454829 1072.054688 107.905086 C1070.979370 110.727657 1070.570923 113.804195 1069.856323 116.764156 C1072.911621 116.137996 1076.232544 116.073665 1078.971802 114.778865 C1086.774780 111.090205 1094.340698 106.900325 1102.500000 102.407771 M1205.500000 252.407771 C1207.449829 253.447566 1209.112671 255.834529 1211.678223 253.265437 C1218.004272 246.930598 1221.176758 235.740108 1217.899414 227.362117 C1215.360474 220.871944 1206.743652 217.511653 1203.960083 223.092891 C1201.850220 227.323177 1200.052979 231.880428 1199.140869 236.494563 C1197.944458 242.547237 1202.048950 247.130305 1205.500000 252.407771 M1175.000000 239.907771 C1174.765381 240.475764 1174.671509 241.179134 1174.275146 241.591792 C1167.353394 248.797359 1169.413086 259.484248 1179.684937 261.340388 C1183.796753 262.083430 1188.040283 262.256770 1192.231689 262.354243 C1196.071899 262.443477 1196.744507 260.993404 1194.893066 257.771419 C1192.815063 254.154903 1190.272827 250.644344 1189.060913 246.737666 C1187.918823 243.056453 1188.207031 238.922359 1187.951782 234.981990 C1187.892944 234.073421 1188.183716 233.142207 1188.313599 232.221370 C1187.177612 232.148311 1185.696899 231.579158 1184.964722 232.087581 C1181.693237 234.359737 1178.635254 236.939326 1175.000000 239.907771 M1236.000000 382.907771 C1236.000000 374.366878 1228.609985 367.527278 1220.107178 368.518367 C1218.651245 368.688045 1216.529419 370.051936 1216.140991 371.305843 C1214.206299 377.549983 1214.858643 383.726619 1217.730591 389.660335 C1219.379272 393.066829 1221.792358 395.201595 1225.742920 395.430232 C1229.879639 395.669734 1232.281982 393.383601 1233.856689 389.997859 C1234.760132 388.055843 1235.297729 385.943538 1236.000000 382.907771 M1029.500000 70.407771 C1035.521729 72.713008 1041.512085 75.054073 1048.012939 71.923701 C1051.772339 70.113399 1054.194214 65.550838 1053.000122 62.139400 C1051.948975 59.136348 1045.596924 55.535457 1042.600708 56.434261 C1036.930664 58.135005 1032.449829 61.670528 1028.839966 66.233455 C1028.264526 66.960811 1028.915894 68.658626 1029.500000 70.407771 M1164.500000 418.407771 C1159.646118 420.355037 1160.635620 423.497493 1164.204468 424.845027 C1169.971313 427.022639 1176.190674 428.042293 1182.267578 429.319514 C1183.295410 429.535457 1184.567383 428.589900 1185.726562 428.181209 C1185.205200 427.144099 1184.835938 425.989192 1184.137939 425.089046 C1179.358154 418.926326 1172.647217 418.033382 1164.500000 418.407771 z"/><path class="selected"  fill="#000000" opacity="1.000000" stroke="none" 
 	d="
M751.000061 137.407771 C749.469482 129.710506 747.796448 122.539851 746.445068 115.309077 C744.820374 106.615901 743.274048 97.896175 742.163574 89.128535 C741.939331 87.357967 743.604431 83.876643 744.764648 83.708308 C747.187927 83.356868 750.833618 83.853572 752.233459 85.491878 C755.969910 89.864680 758.627136 95.138362 762.008972 99.841304 C765.442444 104.616023 768.808472 109.569576 772.991089 113.635005 C776.478088 117.024287 779.403137 115.561153 779.959656 110.759395 C780.481750 106.253902 780.623169 101.705562 781.015747 97.183284 C781.264771 94.314876 782.334412 91.325496 781.794678 88.639827 C781.339722 86.375789 779.504028 83.907527 777.571472 82.506099 C769.553223 76.691341 763.237122 69.937007 764.076721 59.242000 C764.661499 51.793269 767.644958 44.669551 777.015869 41.889461 C780.250122 40.929927 784.982300 43.224788 785.998779 46.271419 C787.400818 50.473445 785.410645 52.080379 781.598328 53.639278 C779.252380 54.598506 776.776550 57.596492 776.231995 60.088374 C775.256836 64.550533 778.182678 67.907161 781.844727 70.413081 C785.680542 73.037776 788.265747 72.400630 790.126587 67.893062 C791.359924 64.905391 793.516174 62.312312 794.957825 59.393672 C796.763367 55.738094 799.992798 55.510677 802.730225 56.909175 C805.082581 58.110774 807.562256 60.267635 805.102051 64.062862 C802.946655 67.387813 801.755493 71.324519 799.972290 74.908443 C798.500061 77.867366 799.093994 79.581660 802.001099 81.500667 C810.538391 87.136470 817.528137 94.023982 820.100891 104.602840 C821.858276 111.829036 820.873169 118.060542 815.062500 122.690608 C809.799011 126.884639 803.726807 127.799373 797.466919 124.411311 C792.632507 121.794673 788.441040 121.284297 784.346069 126.336482 C781.183899 130.237727 773.408203 129.036067 766.431030 124.421321 C765.170593 123.587703 763.481262 123.402400 761.989990 122.917781 C761.918945 124.506709 761.777771 126.096065 761.789062 127.684444 C761.833130 133.875972 762.775940 140.204951 761.800293 146.226131 C760.346191 155.199641 748.472046 157.787715 740.214539 150.115718 C732.043091 142.523677 725.256836 133.859309 719.980652 124.010432 C718.439880 121.134273 716.786804 118.299800 714.937378 115.617061 C714.255066 114.627437 712.859070 114.129817 711.788635 113.407771 C711.192383 114.437434 710.023926 115.505367 710.089783 116.490779 C710.660400 125.031245 711.449402 133.557307 712.181213 142.086909 C712.443176 145.140498 713.364807 148.318416 712.794067 151.203975 C712.352783 153.435298 710.234680 156.774532 708.539307 156.981807 C705.973816 157.295528 702.231384 156.085872 700.574707 154.159724 C696.175781 149.044978 692.603149 143.215694 688.751709 137.636165 C687.602173 135.970882 686.763000 134.074519 685.501465 132.509761 C684.766968 131.598689 683.476807 131.135738 682.436584 130.471187 C681.957703 131.939082 680.857361 133.534969 681.127869 134.848567 C681.712280 137.685725 682.955261 140.395381 684.007507 143.126826 C688.989807 156.058650 694.027405 168.969295 698.960754 181.919673 C699.566772 183.510555 699.594299 185.312556 700.015259 186.985164 C700.841675 190.269344 699.173096 193.252559 696.692932 193.865596 C694.182495 194.486079 690.429443 193.683894 688.416931 192.040279 C682.310669 187.053157 676.787048 181.353206 671.028931 175.939021 C665.634827 170.867061 660.240784 165.794856 654.827148 160.743770 C652.248596 158.337764 650.837402 155.555415 653.468262 152.550105 C656.002441 149.655269 659.741272 149.346309 662.486816 151.620906 C666.361877 154.831416 669.534668 158.891048 672.996277 162.598384 C673.772705 163.429927 674.382263 164.478572 675.290527 165.106441 C676.028015 165.616206 677.097717 165.645381 678.020142 165.887691 C678.013428 164.994685 678.219666 164.035823 677.966980 163.218929 C675.501648 155.248225 672.231812 147.441035 670.667908 139.303523 C669.397217 132.691646 669.064087 125.492671 670.272644 118.913692 C671.801147 110.593074 679.650452 108.720027 685.710388 114.807552 C689.613953 118.728694 692.560913 123.593990 696.033997 127.958675 C696.739746 128.845576 697.881348 129.385738 698.822021 130.085750 C699.214661 128.748775 700.187805 127.273372 699.907288 126.096919 C697.827087 117.372371 698.711853 108.773738 701.112915 100.356807 C702.118286 96.832454 703.869629 92.797664 708.309265 92.531429 C712.547974 92.277339 715.984802 94.012080 718.397705 98.162410 C724.352722 108.405208 730.631775 118.468562 737.065613 128.419795 C739.746582 132.566341 743.041687 136.341243 746.307922 140.065608 C747.093689 140.961604 748.875916 140.983760 750.199951 141.407771 C750.466614 140.241145 750.733337 139.074458 751.000061 137.407771 M793.000000 94.907771 C793.120239 102.434810 793.856384 109.781673 801.923889 113.286433 C803.562439 113.998286 806.319946 113.794612 807.731262 112.815730 C808.763000 112.100215 808.952698 109.318904 808.618652 107.636958 C807.350342 101.250484 802.581665 97.154353 797.992126 93.169124 C797.165283 92.451228 794.705750 93.613582 793.000000 94.907771 z"/><path class="selected"  fill="#000000" opacity="1.000000" stroke="none" 
 	d="
M838.000000 47.407771 C839.297668 41.525142 847.331604 38.767879 852.461548 42.593074 C856.388550 45.521297 858.319458 44.886714 860.178711 40.798335 C860.819336 39.389888 861.744873 37.669795 863.004150 37.075801 C865.626709 35.838802 869.050537 33.954341 871.225586 34.774471 C873.400879 35.594600 876.104736 39.687556 875.717285 41.828120 C873.943970 51.622676 871.447144 61.421260 864.009766 68.783138 C861.299438 71.465877 857.902832 72.820308 854.493774 69.403987 C849.819458 64.719539 844.902283 60.246700 840.579712 55.258174 C838.998413 53.433162 838.818970 50.393367 838.000000 47.407771 z"/><path class="selected"  fill="#000000" opacity="1.000000" stroke="none" 
 	d="
M1200.250000 161.157771 C1202.862183 164.687007 1203.411743 168.285030 1199.949341 170.754817 C1196.473999 173.233943 1193.917969 170.442012 1192.037476 167.676875 C1190.218384 165.002315 1192.423218 160.761165 1195.751953 160.456599 C1197.142456 160.329280 1198.582520 160.741084 1200.250000 161.157771 z"/><path class="selected"  fill="#000000" opacity="1.000000" stroke="none" 
 	d="
M734.250000 72.157771 C732.182129 68.511043 731.907715 65.432918 736.181213 63.775325 C739.095032 62.645320 741.954651 63.204097 742.890747 66.417415 C743.811157 69.577510 743.114807 72.742244 739.063721 73.321162 C737.615540 73.528133 736.025391 72.741084 734.250000 72.157771 z"/></svg>